# xmcd
#
# Track frame offsets:
#	150
#	21951
#	51224
#	69702
#	86823
#	107663
#	129810
#	152803
#	160445
#	168328
#	181885
#	202170
#	223199
#	245104
#	271293
#	285133
#	298470
#
# Disc length: 4213 seconds
#
# Revision: 0
# Processed by: cddbd v1.5.2PL0 Copyright (c) Steve Scherf et al.
# Submitted via: dBpowerAMP V4.0
#
DISCID=07107311
DTITLE=rjjyu7kuik - lo88o.o.
DYEAR=2011
DGENRE=AlternRock
TTITLE0=Roberto1
TTITLE1=ROBERTO2
TTITLE2=ROBERTO3
TTITLE3=ROBERTO4
TTITLE4=ROBERTO5
TTITLE5=ROBERTO6
TTITLE6=ROBERTO7
TTITLE7=ROBERTO8
TTITLE8=ROBERTO9
TTITLE9=ROBERTO10
TTITLE10=ROBERTO11
TTITLE11=ROBERTO12
TTITLE12=ROBERTO13
TTITLE13=ROBERTO14
TTITLE14=ROBERTO15
TTITLE15=ROBERTO16
TTITLE16=ROBERTO17
EXTD=POLIKA
EXTT0=
EXTT1=
EXTT2=
EXTT3=
EXTT4=
EXTT5=
EXTT6=
EXTT7=
EXTT8=
EXTT9=
EXTT10=
EXTT11=
EXTT12=
EXTT13=
EXTT14=
EXTT15=
EXTT16=
PLAYORDER=
